<svg width="96" height="20" viewBox="0 0 96 20" fill="none" xmlns="http://www.w3.org/2000/svg">
<path d="M95.6525 10.1286C95.6525 11.4221 95.4178 12.6435 94.9483 13.7926C94.4747 14.9463 93.7911 15.9725 92.8896 16.8757C91.9836 17.779 90.9581 18.4702 89.8136 18.9494C88.6729 19.4286 87.4747 19.6703 86.2229 19.6703C84.9505 19.6703 83.7397 19.4286 82.5827 18.9451C81.4297 18.4574 80.4126 17.7705 79.5273 16.8757C78.6254 15.9725 77.942 14.9504 77.4766 13.8053C77.0113 12.6646 76.7767 11.4391 76.7767 10.1286C76.7767 8.82674 77.0113 7.60117 77.4766 6.45207C77.942 5.2986 78.6254 4.26806 79.5273 3.35639C80.4292 2.45313 81.4505 1.76611 82.5909 1.29524C83.7317 0.82459 84.9423 0.587163 86.2229 0.587163C87.4911 0.587163 88.6936 0.82459 89.8341 1.29524C90.9705 1.76611 91.9917 2.45313 92.8896 3.35639C93.7911 4.27663 94.4747 5.31559 94.9483 6.46905C95.4178 7.62665 95.6525 8.84373 95.6525 10.1286ZM16.9727 10.2051C16.9399 10.0651 16.8863 9.67488 16.8164 9.03889C16.7504 8.50885 16.6928 8.06768 16.6474 7.71989C16.5734 8.13557 16.4704 8.55111 16.3385 8.96258C16.2069 9.37813 16.038 9.79795 15.8362 10.2304L11.5678 19.1868H10.8717L6.59593 10.0312C6.4024 9.62412 6.23347 9.23392 6.09374 8.85221C5.9538 8.47058 5.83002 8.09317 5.72728 7.71989C5.71883 8.10173 5.69007 8.50028 5.63648 8.92017C5.58311 9.33985 5.50469 9.77667 5.40195 10.2304L3.5076 19.1868H2.92106H0.864076L4.87186 0.991779H5.385L10.2526 11.7105C10.3309 11.8886 10.4543 12.194 10.619 12.6138C10.7837 13.0379 10.9813 13.5595 11.2162 14.1786C11.3849 13.657 11.6527 12.9954 12.015 12.194C12.1097 11.9777 12.1837 11.8123 12.2291 11.6977L16.9847 0.991779H17.4942L21.5929 19.1868H18.9246L16.9727 10.2051ZM37.0817 19.1868L35.0803 14.505H28.0801L26.0296 19.1868H23.0154L31.2466 0.991779H31.8888L40.1123 19.1868H37.0817ZM29.1425 12.037H34.0675L32.2557 7.88957C32.1526 7.62665 32.0415 7.32134 31.9304 6.97797C31.8192 6.63439 31.7039 6.25275 31.5927 5.82865C31.4979 6.2272 31.395 6.59633 31.2838 6.9397C31.1769 7.28328 31.0657 7.60117 30.9543 7.88957L29.1425 12.037ZM41.7717 19.1868V0.991779H42.4888L52.9967 11.3966C53.3015 11.7105 53.6103 12.0456 53.9272 12.4017C54.2403 12.7581 54.5699 13.1607 54.9155 13.6061V0.994275H57.5592V19.1868H56.8393L46.1158 8.5766C45.8113 8.26706 45.5149 7.94476 45.2306 7.6056C44.9425 7.26616 44.6747 6.91001 44.4152 6.53673V19.1868H41.7717ZM73.2849 19.1868L71.2836 14.505H64.2836L62.2331 19.1868H59.2187L67.4499 0.991779H68.0921L76.3155 19.1868H73.2849ZM65.3459 12.037H70.2708L68.459 7.88957C68.3558 7.62665 68.2449 7.32134 68.1337 6.97797C68.0225 6.63439 67.9072 6.25275 67.796 5.82865C67.7013 6.2272 67.5983 6.59633 67.4871 6.9397C67.3802 7.28328 67.269 7.60117 67.1578 7.88957L65.3459 12.037ZM92.6631 10.1286C92.6631 9.20837 92.4983 8.33494 92.1729 7.50793C91.8475 6.68099 91.3783 5.94322 90.7688 5.2986C90.1717 4.65827 89.484 4.17048 88.7016 3.82704C87.9153 3.48345 87.0876 3.30962 86.2229 3.30962C85.3539 3.30962 84.5264 3.4793 83.7397 3.81846C82.9575 4.15769 82.2576 4.6497 81.648 5.2986C81.0386 5.93466 80.5692 6.66822 80.2481 7.49523C79.9267 8.32224 79.7662 9.20002 79.7662 10.1286C79.7662 11.0491 79.9267 11.9183 80.2481 12.7367C80.5692 13.5552 81.0386 14.2887 81.648 14.9335C82.2576 15.5823 82.9533 16.0742 83.7357 16.4134C84.514 16.7526 85.3458 16.9223 86.2229 16.9223C87.0834 16.9223 87.8989 16.7526 88.6769 16.4134C89.4512 16.0742 90.1512 15.5823 90.7688 14.9335C91.3783 14.2887 91.8475 13.5552 92.1729 12.7325C92.4983 11.9056 92.6631 11.0405 92.6631 10.1286Z" fill="white"/>
</svg>
