<svg width="66" height="14" viewBox="0 0 66 14" fill="none" xmlns="http://www.w3.org/2000/svg">
<path d="M66 7.08994C66 7.98555 65.8375 8.83118 65.5125 9.6268C65.1845 10.4256 64.7112 11.1361 64.0871 11.7615C63.4597 12.3869 62.7497 12.8655 61.9573 13.1973C61.1675 13.5291 60.3378 13.6964 59.4711 13.6964C58.5902 13.6964 57.7518 13.5291 56.9508 13.1943C56.1524 12.8566 55.4482 12.381 54.8353 11.7615C54.2108 11.1361 53.7376 10.4284 53.4154 9.6356C53.0933 8.84581 52.9308 7.99726 52.9308 7.08994C52.9308 6.18855 53.0933 5.34 53.4154 4.54438C53.7376 3.74575 54.2108 3.03222 54.8353 2.401C55.4597 1.7756 56.1668 1.29992 56.9564 0.973904C57.7463 0.648035 58.5845 0.483646 59.4711 0.483646C60.3492 0.483646 61.1818 0.648035 61.9715 0.973904C62.7583 1.29992 63.4654 1.7756 64.0871 2.401C64.7112 3.03815 65.1845 3.7575 65.5125 4.55614C65.8375 5.35764 66 6.20031 66 7.08994ZM11.5238 7.14287C11.5011 7.04594 11.464 6.77578 11.4156 6.33544C11.3699 5.96845 11.33 5.663 11.2986 5.42219C11.2473 5.71 11.1761 5.99771 11.0847 6.28261C10.9936 6.57032 10.8766 6.86099 10.737 7.16042L7.78158 13.3617H7.29958L4.33916 7.02252C4.20516 6.74064 4.0882 6.47047 3.99145 6.20619C3.89456 5.94196 3.80886 5.68064 3.73772 5.42219C3.73187 5.68657 3.71196 5.96251 3.67486 6.25324C3.6379 6.54382 3.58361 6.84627 3.51247 7.16042L2.20086 13.3617H1.79475H0.370546L3.14545 0.763793H3.50073L6.87093 8.18523C6.92517 8.3085 7.01058 8.51994 7.12466 8.81062C7.2387 9.10426 7.37547 9.46543 7.53815 9.89405C7.65496 9.53289 7.84033 9.07486 8.09119 8.51995C8.15678 8.37018 8.208 8.2557 8.23941 8.17638L11.5321 0.763793H11.8849L14.7228 13.3617H12.8753L11.5238 7.14287ZM25.4468 13.3617L24.0612 10.1201H19.2143L17.7946 13.3617H15.7076L21.4068 0.763793H21.8514L27.5451 13.3617H25.4468ZM19.9499 8.41126H23.3598L22.1054 5.53968C22.034 5.35764 21.9571 5.14624 21.8802 4.9085C21.8032 4.67061 21.7234 4.40638 21.6464 4.11274C21.5807 4.38868 21.5095 4.64426 21.4325 4.882C21.3585 5.11989 21.2815 5.33999 21.2044 5.53968L19.9499 8.41126ZM28.6941 13.3617V0.763793H29.1906L36.4661 7.9679C36.6771 8.18522 36.8909 8.41719 37.1103 8.66378C37.3271 8.91051 37.5553 9.18932 37.7946 9.49769V0.765521H39.6251V13.3617H39.1266L31.7019 6.01536C31.4911 5.80104 31.2858 5.57789 31.089 5.34306C30.8895 5.10804 30.7041 4.86145 30.5244 4.603V13.3617H28.6941ZM50.5132 13.3617L49.1275 10.1201H44.2808L42.8611 13.3617H40.774L46.4731 0.763793H46.9178L52.6115 13.3617H50.5132ZM45.0163 8.41126H48.4263L47.1718 5.53968C47.1004 5.35764 47.0236 5.14624 46.9466 4.9085C46.8696 4.67061 46.7897 4.40638 46.7128 4.11274C46.6472 4.38868 46.5759 4.64426 46.4989 4.882C46.4248 5.11989 46.3479 5.33999 46.2709 5.53968L45.0163 8.41126ZM63.9302 7.08994C63.9302 6.45278 63.8161 5.84804 63.5908 5.27544C63.3655 4.70288 63.0407 4.19207 62.6186 3.74575C62.2052 3.30239 61.7291 2.96466 61.1874 2.72686C60.6429 2.48897 60.0699 2.36862 59.4711 2.36862C58.8695 2.36862 58.2965 2.4861 57.7518 2.72093C57.2103 2.9558 56.7257 3.29646 56.3036 3.74575C55.8816 4.18614 55.5566 4.69404 55.3343 5.26664C55.1118 5.83925 55.0007 6.447 55.0007 7.08994C55.0007 7.72724 55.1118 8.32906 55.3343 8.89573C55.5566 9.46241 55.8816 9.97032 56.3036 10.4167C56.7257 10.8659 57.2074 11.2066 57.7491 11.4414C58.288 11.6763 58.8639 11.7938 59.4711 11.7938C60.0669 11.7938 60.6316 11.6763 61.1702 11.4414C61.7063 11.2066 62.191 10.8659 62.6186 10.4167C63.0407 9.97032 63.3655 9.46241 63.5908 8.89282C63.8161 8.32026 63.9302 7.72131 63.9302 7.08994Z" fill="#3F0F72"/>
</svg>
